<mxfile host="app.diagrams.net" modified="2020-11-30T10:46:28.217Z" agent="5.0 (X11)" etag="rguD1PBmLou--NBbijtC" version="13.7.9" type="github">
  <diagram id="C5RBs43oDa-KdzZeNtuy" name="Page-1">
    <mxGraphModel dx="2422" dy="770" grid="1" gridSize="10" guides="1" tooltips="1" connect="1" arrows="1" fold="1" page="1" pageScale="1" pageWidth="827" pageHeight="1169" math="0" shadow="0">
      <root>
        <mxCell id="WIyWlLk6GJQsqaUBKTNV-0" />
        <mxCell id="WIyWlLk6GJQsqaUBKTNV-1" parent="WIyWlLk6GJQsqaUBKTNV-0" />
        <mxCell id="kOw52LvNa-DupUHvRuqN-4" style="edgeStyle=orthogonalEdgeStyle;rounded=0;orthogonalLoop=1;jettySize=auto;html=1;exitX=0.5;exitY=1;exitDx=0;exitDy=0;exitPerimeter=0;entryX=0.5;entryY=0;entryDx=0;entryDy=0;" edge="1" parent="WIyWlLk6GJQsqaUBKTNV-1" target="kOw52LvNa-DupUHvRuqN-1">
          <mxGeometry relative="1" as="geometry">
            <mxPoint x="405" y="60" as="sourcePoint" />
          </mxGeometry>
        </mxCell>
        <mxCell id="kOw52LvNa-DupUHvRuqN-3" style="edgeStyle=orthogonalEdgeStyle;rounded=0;orthogonalLoop=1;jettySize=auto;html=1;exitX=0.5;exitY=1;exitDx=0;exitDy=0;entryX=0.5;entryY=0;entryDx=0;entryDy=0;" edge="1" parent="WIyWlLk6GJQsqaUBKTNV-1" source="kOw52LvNa-DupUHvRuqN-1" target="kOw52LvNa-DupUHvRuqN-2">
          <mxGeometry relative="1" as="geometry" />
        </mxCell>
        <mxCell id="kOw52LvNa-DupUHvRuqN-1" value="Sample data to create cells with approximate equal density" style="shape=process;whiteSpace=wrap;html=1;backgroundOutline=1;" vertex="1" parent="WIyWlLk6GJQsqaUBKTNV-1">
          <mxGeometry x="307.5" y="100" width="195" height="60" as="geometry" />
        </mxCell>
        <mxCell id="kOw52LvNa-DupUHvRuqN-7" value="" style="edgeStyle=orthogonalEdgeStyle;rounded=0;orthogonalLoop=1;jettySize=auto;html=1;" edge="1" parent="WIyWlLk6GJQsqaUBKTNV-1" source="kOw52LvNa-DupUHvRuqN-2" target="kOw52LvNa-DupUHvRuqN-5">
          <mxGeometry relative="1" as="geometry" />
        </mxCell>
        <mxCell id="kOw52LvNa-DupUHvRuqN-2" value="Map each entry to a cell" style="shape=process;whiteSpace=wrap;html=1;backgroundOutline=1;" vertex="1" parent="WIyWlLk6GJQsqaUBKTNV-1">
          <mxGeometry x="345" y="190" width="120" height="60" as="geometry" />
        </mxCell>
        <mxCell id="kOw52LvNa-DupUHvRuqN-11" value="" style="edgeStyle=orthogonalEdgeStyle;rounded=0;orthogonalLoop=1;jettySize=auto;html=1;" edge="1" parent="WIyWlLk6GJQsqaUBKTNV-1" source="kOw52LvNa-DupUHvRuqN-5" target="kOw52LvNa-DupUHvRuqN-10">
          <mxGeometry relative="1" as="geometry" />
        </mxCell>
        <mxCell id="kOw52LvNa-DupUHvRuqN-20" style="edgeStyle=orthogonalEdgeStyle;rounded=0;orthogonalLoop=1;jettySize=auto;html=1;" edge="1" parent="WIyWlLk6GJQsqaUBKTNV-1" source="kOw52LvNa-DupUHvRuqN-5" target="kOw52LvNa-DupUHvRuqN-19">
          <mxGeometry relative="1" as="geometry" />
        </mxCell>
        <mxCell id="kOw52LvNa-DupUHvRuqN-5" value="Choose query" style="rhombus;whiteSpace=wrap;html=1;" vertex="1" parent="WIyWlLk6GJQsqaUBKTNV-1">
          <mxGeometry x="350" y="290" width="110" height="60" as="geometry" />
        </mxCell>
        <mxCell id="kOw52LvNa-DupUHvRuqN-9" value="Data" style="shape=document;whiteSpace=wrap;html=1;boundedLbl=1;" vertex="1" parent="WIyWlLk6GJQsqaUBKTNV-1">
          <mxGeometry x="345" width="120" height="80" as="geometry" />
        </mxCell>
        <mxCell id="kOw52LvNa-DupUHvRuqN-14" value="" style="edgeStyle=orthogonalEdgeStyle;rounded=0;orthogonalLoop=1;jettySize=auto;html=1;" edge="1" parent="WIyWlLk6GJQsqaUBKTNV-1" source="kOw52LvNa-DupUHvRuqN-10" target="kOw52LvNa-DupUHvRuqN-13">
          <mxGeometry relative="1" as="geometry" />
        </mxCell>
        <mxCell id="kOw52LvNa-DupUHvRuqN-10" value="Prune cells that are fully dominated" style="shape=process;whiteSpace=wrap;html=1;backgroundOutline=1;" vertex="1" parent="WIyWlLk6GJQsqaUBKTNV-1">
          <mxGeometry x="160" y="360" width="130" height="50" as="geometry" />
        </mxCell>
        <mxCell id="kOw52LvNa-DupUHvRuqN-12" value="&lt;div&gt;&lt;font style=&quot;font-size: 18px&quot;&gt;Skyline follow paper : Scalable Parallelization &lt;br&gt;&lt;/font&gt;&lt;/div&gt;&lt;div&gt;&lt;font size=&quot;3&quot;&gt;of Skyline Computation for Multi-core Processors&lt;/font&gt;&lt;/div&gt;" style="text;html=1;align=center;verticalAlign=middle;resizable=0;points=[];autosize=1;" vertex="1" parent="WIyWlLk6GJQsqaUBKTNV-1">
          <mxGeometry x="-10" y="270" width="380" height="40" as="geometry" />
        </mxCell>
        <mxCell id="kOw52LvNa-DupUHvRuqN-16" value="" style="edgeStyle=orthogonalEdgeStyle;rounded=0;orthogonalLoop=1;jettySize=auto;html=1;" edge="1" parent="WIyWlLk6GJQsqaUBKTNV-1" source="kOw52LvNa-DupUHvRuqN-13" target="kOw52LvNa-DupUHvRuqN-15">
          <mxGeometry relative="1" as="geometry" />
        </mxCell>
        <mxCell id="kOw52LvNa-DupUHvRuqN-13" value="Partition entries by cell id" style="shape=process;whiteSpace=wrap;html=1;backgroundOutline=1;" vertex="1" parent="WIyWlLk6GJQsqaUBKTNV-1">
          <mxGeometry x="165" y="450" width="120" height="60" as="geometry" />
        </mxCell>
        <mxCell id="kOw52LvNa-DupUHvRuqN-18" value="" style="edgeStyle=orthogonalEdgeStyle;rounded=0;orthogonalLoop=1;jettySize=auto;html=1;" edge="1" parent="WIyWlLk6GJQsqaUBKTNV-1" source="kOw52LvNa-DupUHvRuqN-15" target="kOw52LvNa-DupUHvRuqN-17">
          <mxGeometry relative="1" as="geometry" />
        </mxCell>
        <mxCell id="kOw52LvNa-DupUHvRuqN-15" value="For every cell find the elements that are not dominated by others in the same cell and prune the others" style="shape=process;whiteSpace=wrap;html=1;backgroundOutline=1;" vertex="1" parent="WIyWlLk6GJQsqaUBKTNV-1">
          <mxGeometry x="135" y="550" width="180" height="120" as="geometry" />
        </mxCell>
        <mxCell id="kOw52LvNa-DupUHvRuqN-31" style="edgeStyle=orthogonalEdgeStyle;rounded=0;orthogonalLoop=1;jettySize=auto;html=1;entryX=0.25;entryY=0;entryDx=0;entryDy=0;" edge="1" parent="WIyWlLk6GJQsqaUBKTNV-1" source="kOw52LvNa-DupUHvRuqN-17" target="kOw52LvNa-DupUHvRuqN-30">
          <mxGeometry relative="1" as="geometry" />
        </mxCell>
        <mxCell id="kOw52LvNa-DupUHvRuqN-17" value="Collect individual results and merge the results (we can narrow the search in the dimentions that are fuzzy" style="shape=process;whiteSpace=wrap;html=1;backgroundOutline=1;" vertex="1" parent="WIyWlLk6GJQsqaUBKTNV-1">
          <mxGeometry x="122.5" y="700" width="205" height="110" as="geometry" />
        </mxCell>
        <mxCell id="kOw52LvNa-DupUHvRuqN-24" value="" style="edgeStyle=orthogonalEdgeStyle;rounded=0;orthogonalLoop=1;jettySize=auto;html=1;" edge="1" parent="WIyWlLk6GJQsqaUBKTNV-1" source="kOw52LvNa-DupUHvRuqN-19" target="kOw52LvNa-DupUHvRuqN-23">
          <mxGeometry relative="1" as="geometry" />
        </mxCell>
        <mxCell id="kOw52LvNa-DupUHvRuqN-19" value="prune by g.φ" style="shape=process;whiteSpace=wrap;html=1;backgroundOutline=1;" vertex="1" parent="WIyWlLk6GJQsqaUBKTNV-1">
          <mxGeometry x="480" y="355" width="120" height="60" as="geometry" />
        </mxCell>
        <mxCell id="kOw52LvNa-DupUHvRuqN-21" value="&lt;font style=&quot;font-size: 18px&quot;&gt;Top-k follow paper : Multi-Dimensional Top-k Dominating Queries (subsection 6)&lt;/font&gt;" style="text;html=1;strokeColor=none;fillColor=none;align=center;verticalAlign=middle;whiteSpace=wrap;rounded=0;" vertex="1" parent="WIyWlLk6GJQsqaUBKTNV-1">
          <mxGeometry x="480" y="250" width="320" height="70" as="geometry" />
        </mxCell>
        <mxCell id="kOw52LvNa-DupUHvRuqN-26" value="" style="edgeStyle=orthogonalEdgeStyle;rounded=0;orthogonalLoop=1;jettySize=auto;html=1;" edge="1" parent="WIyWlLk6GJQsqaUBKTNV-1" source="kOw52LvNa-DupUHvRuqN-23" target="kOw52LvNa-DupUHvRuqN-25">
          <mxGeometry relative="1" as="geometry" />
        </mxCell>
        <mxCell id="kOw52LvNa-DupUHvRuqN-23" value="prune by lower bound score (γ)" style="shape=process;whiteSpace=wrap;html=1;backgroundOutline=1;" vertex="1" parent="WIyWlLk6GJQsqaUBKTNV-1">
          <mxGeometry x="480" y="460" width="120" height="60" as="geometry" />
        </mxCell>
        <mxCell id="kOw52LvNa-DupUHvRuqN-28" value="" style="edgeStyle=orthogonalEdgeStyle;rounded=0;orthogonalLoop=1;jettySize=auto;html=1;" edge="1" parent="WIyWlLk6GJQsqaUBKTNV-1" source="kOw52LvNa-DupUHvRuqN-25" target="kOw52LvNa-DupUHvRuqN-27">
          <mxGeometry relative="1" as="geometry" />
        </mxCell>
        <mxCell id="kOw52LvNa-DupUHvRuqN-25" value="Use algorithm 5 as filter" style="shape=process;whiteSpace=wrap;html=1;backgroundOutline=1;" vertex="1" parent="WIyWlLk6GJQsqaUBKTNV-1">
          <mxGeometry x="480" y="570" width="120" height="60" as="geometry" />
        </mxCell>
        <mxCell id="kOw52LvNa-DupUHvRuqN-32" style="edgeStyle=orthogonalEdgeStyle;rounded=0;orthogonalLoop=1;jettySize=auto;html=1;entryX=0.75;entryY=0;entryDx=0;entryDy=0;" edge="1" parent="WIyWlLk6GJQsqaUBKTNV-1" source="kOw52LvNa-DupUHvRuqN-27" target="kOw52LvNa-DupUHvRuqN-30">
          <mxGeometry relative="1" as="geometry" />
        </mxCell>
        <mxCell id="kOw52LvNa-DupUHvRuqN-27" value="Refinement pass only on the elements that belongs in cells that are partially dominated" style="shape=process;whiteSpace=wrap;html=1;backgroundOutline=1;" vertex="1" parent="WIyWlLk6GJQsqaUBKTNV-1">
          <mxGeometry x="425" y="690" width="230" height="110" as="geometry" />
        </mxCell>
        <mxCell id="kOw52LvNa-DupUHvRuqN-30" value="Report Results" style="rounded=1;whiteSpace=wrap;html=1;" vertex="1" parent="WIyWlLk6GJQsqaUBKTNV-1">
          <mxGeometry x="327.5" y="880" width="120" height="60" as="geometry" />
        </mxCell>
      </root>
    </mxGraphModel>
  </diagram>
</mxfile>
